PathFileType	4	(X/Y/Z)	RBDS023\RBDS023runT45.trc
DataRate	CameraRate	NumFrames	NumMarkers	Units	OrigDataRate	OrigDataStartFrame	OrigNumFrames
150.000000	150.000000	4	33	mm	150.000000	2250	4500
Frame#	Time	L.ASIS			L.Heel.Bottom			L.Heel.Lateral			L.Heel.Top			L.Iliac.Crest			L.MT1			L.MT5			L.PSIS			L.Shank.Bottom.Lateral			L.Shank.Bottom.Medial			L.Shank.Top.Lateral			L.Shank.Top.Medial			L.Thigh.Bottom.Lateral			L.Thigh.Bottom.Medial			L.Thigh.Top.Lateral			L.Thigh.Top.Medial			R.ASIS			R.ASY			R.Heel.Bottom			R.Heel.Lateral			R.Heel.Top			R.Iliac.Crest			R.MT1			R.MT5			R.PSIS			R.Shank.Bottom.Lateral			R.Shank.Bottom.Medial			R.Shank.Top.Lateral			R.Shank.Top.Medial			R.Thigh.Bottom.Lateral			R.Thigh.Bottom.Medial			R.Thigh.Top.Lateral			R.Thigh.Top.Medial			
		X1	Y1	Z1	X2	Y2	Z2	X3	Y3	Z3	X4	Y4	Z4	X5	Y5	Z5	X6	Y6	Z6	X7	Y7	Z7	X8	Y8	Z8	X9	Y9	Z9	X10	Y10	Z10	X11	Y11	Z11	X12	Y12	Z12	X13	Y13	Z13	X14	Y14	Z14	X15	Y15	Z15	X16	Y16	Z16	X17	Y17	Z17	X18	Y18	Z18	X19	Y19	Z19	X20	Y20	Z20	X21	Y21	Z21	X22	Y22	Z22	X23	Y23	Z23	X24	Y24	Z24	X25	Y25	Z25	X26	Y26	Z26	X27	Y27	Z27	X28	Y28	Z28	X29	Y29	Z29	X30	Y30	Z30	X31	Y31	Z31	X32	Y32	Z32	X33	Y33	Z33	

2251	15	2403.507637171414	1001.100065410277	953.4143373268981	1697.429251182163	664.5599436085491	1040.642205673721	1699.722097644646	633.744670400677	998.2134553086662	1735.87061476756	637.125617489326	1036.259041279557	2352.967024131548	1087.79810618305	904.0836220717425	1623.223372341084	451.2275050716546	1071.660871417313	1614.713051496727	493.1879054658779	962.8259769944326	2218.340523249647	1043.637596447277	990.2527765877885	1792.705255146861	565.2022304871687	967.691143565264	1796.041568044183	605.9029984356577	998.5528197730133	1871.242956108136	570.5504279789803	947.9963005022431	1878.898863167485	610.8948617240221	981.5459625007691	2199.817743526225	655.44059511851	892.9808606882069	2147.600208431475	674.6839685610114	938.1023905375753	2225.731903699435	762.2441625141453	882.8951525554818	2175.977112668387	780.5945515611591	926.7566851276936	2385.050356924179	1003.042297698337	1162.373047449839	-201827869.6053499	-331780716.6853296	268730650.2340973	2536.277059109733	19.04564972160651	1050.435068079026	2554.561763595204	38.92227476489742	1098.246139107498	2530.764860898809	64.04993298529692	1055.158268996311	2299.928980635475	1092.477850809312	1204.78494536826	2742.677183701823	100.3632240671332	1038.447869515251	2709.389892447592	73.23734651885339	1145.587339126662	2209.42822004506	1044.910051898875	1099.895586615146	2561.006890723894	168.9961498215939	1130.8716217499	2514.938002688446	161.4840578423772	1100.254032877024	2530.198903334626	239.8500009761754	1157.008935608728	2486.88720768417	232.709241084346	1124.243947799647	2422.813690645895	624.2364501158441	1195.605053441793	2372.165501590036	598.6925408734627	1149.962696748127	2361.179230208219	714.3897315562675	1208.517141707261	2313.8906115138	690.1257845055691	1164.52983499252	
2252	15.00666666666667	2402.559944659779	995.2585081966921	953.0651480850064	1718.278010769057	674.7882283825624	1038.166467547141	1719.79807201448	643.929277330337	995.6136991354795	1755.54828742867	645.7088194849341	1034.050173935479	2352.934619502468	1080.619579032134	902.7107748658199	1634.713527810677	464.3445281943096	1067.461586304306	1629.353010058884	506.9621812738079	958.8196104696135	2217.211426448745	1036.164796913361	988.6889518611696	1809.095372732316	570.5914953430389	965.2423717442224	1814.265722031726	611.4122442019849	995.7197009843288	1887.810221441694	572.0833070517974	945.6792361676006	1897.270649659937	612.36531483161	978.869872932579	2207.310316383406	645.687995527515	891.7698526396583	2154.752097887818	663.3713372349579	937.1049078872475	2230.176179875682	753.1360895526961	881.7014321657178	2179.978157017166	770.1178652205728	925.5798364615788	2383.43869747749	998.4380901258422	1161.941654605828	-203138753.2483265	-333935154.3257573	270476066.6180232	2510.578184226369	18.4000986762197	1049.624248683577	2530.312935858261	37.36997060478176	1097.121751723046	2508.665267364669	63.58328343856667	1053.538778142345	2298.524681936847	1086.653085974076	1204.411148317304	2722.544496068899	85.07095511323509	1037.273795694854	2687.192342375658	61.20648666543259	1145.086183487963	2207.695147031669	1039.058721627939	1098.45384922871	2546.233657294118	163.2094395905931	1129.902497949992	2499.555118615509	157.8492444493964	1099.887972720824	2518.914994443042	235.1352028149433	1156.615010559394	2474.96043480934	230.0822766585876	1124.472302612665	2422.580339581448	620.8539289105742	1196.14582265068	2372.043793310807	594.6886345117559	1150.698311440251	2360.31693666375	710.5899655587358	1208.587740484532	2313.220439915693	685.7668250366221	1164.720748079574	
2253	15.01333333333333	2401.261999120723	988.9324960503699	952.8210142972531	1739.446692410725	682.7401095230925	1035.668204059211	1740.448426155148	651.9355534128786	992.9675799905058	1775.647918400652	652.353217188753	1031.823470333178	2352.913844869264	1072.948504172344	901.2809358051632	1648.090908025054	475.1283234458829	1062.97694913421	1645.710579189998	518.1998734157006	954.5712473342627	2215.837972429474	1028.702341668608	986.976741973314	1826.352878475967	574.4081937627815	962.720633468374	1833.229844462499	615.2793623267855	992.8553618932478	1905.063930590832	572.3493509776268	943.2824386632199	1916.191815412108	612.517721439667	976.1361221644188	2215.214044490943	636.1058219701684	890.3841418342178	2162.134376428326	652.1645990163807	935.6404450291657	2234.95224755668	744.1191618305455	880.3343230995291	2184.181431627123	759.663507467039	924.0173073947535	2381.431031843757	993.6708287675621	1161.42511058978	-204455300.6603471	-336098898.5062292	272229024.4113907	2483.518178631419	18.70815120110597	1048.801130081706	2504.657828096201	36.94411536389608	1095.932086455684	2485.15960180048	64.02553563976075	1051.792845590965	2296.971749312694	1080.370427984803	1204.035479155375	2700.573666126351	71.13274065593035	1035.82996789327	2663.343241395868	50.74816047448333	1144.471624497597	2205.610507771342	1033.250653100459	1096.839629815262	2530.431923730178	158.4491882922694	1128.750756108534	2483.236265057217	155.4832578925278	1099.323167831863	2506.929514616429	231.3449616992121	1156.117330087689	2462.425155980219	228.6110113550272	1124.596114910209	2422.250810416429	617.6153793258106	1197.061594926431	2372.099130751352	590.8800101458606	1151.51968694165	2359.196705279074	706.8185274964396	1208.975033377234	2312.487556743492	681.4668312273795	1165.016400983103	
2254	15.02	2399.567558541209	982.2352131807713	952.6866172202987	1760.659501756501	688.5159808281118	1033.017315131673	1761.415990522357	657.7945030692912	990.1891086209959	1795.942185915215	657.1408137400485	1029.503508877398	2352.682720158083	1064.959624758807	899.8291506828001	1663.075305466039	483.4938073308679	1058.347174696045	1663.520621853558	526.7460882648278	950.1623603677627	2214.190807796184	1021.43008596244	985.1845179699053	1844.326650861174	576.6746488127997	960.1289964597886	1852.760420600644	617.5523909715915	989.9644519016455	1922.904074271717	571.4050607684543	940.8172735039921	1935.545648426738	611.4328874858494	973.3583754092381	2223.62931728879	626.8472448679006	888.8482105641235	2169.832645515742	641.1759074986237	933.7120887977183	2240.128668380166	735.3572736267438	878.8571036477831	2188.645332985443	749.3501746416944	922.1204196318649	2379.015971982275	988.8563794277956	1160.89507169025	-205777524.0502063	-338271969.2842985	273989539.87115	2455.52430874886	19.84800274475238	1048.000186214595	2477.942043139668	37.55976298739957	1094.739506124341	2460.498651429223	65.25640238380328	1050.006409805157	2295.235650611424	1073.748425800426	1203.651363313688	2676.947193993621	59.15439879961657	1034.246327936415	2638.072723421438	42.28131130140888	1143.808446287345	2203.170288101412	1027.60605571385	1095.079603556309	2513.59798740922	154.8433079373249	1127.475719336161	2466.024265158944	154.4756032142808	1098.591011070182	2494.17645733099	228.5659522400719	1155.536170142671	2449.257150217726	228.338972666337	1124.607319851862	2421.62628525066	614.5214604463725	1198.259395797868	2372.133937885023	587.3383024197884	1152.30349135838	2357.7008351969	703.1340288944249	1209.612289973712	2311.562736873776	677.3424768727605	1165.331366055239	
